<svg width="600" height="600" viewBox="0 0 600 600" fill="none" xmlns="http://www.w3.org/2000/svg">
<path d="M167.272 407.273C160.243 414.302 160.243 425.698 167.272 432.727C174.301 439.757 185.698 439.757 192.728 432.727L167.272 407.273ZM312.727 312.727C319.757 305.698 319.757 294.302 312.727 287.273C305.698 280.243 294.302 280.243 287.273 287.273L312.727 312.727ZM287.273 287.273C280.243 294.302 280.243 305.698 287.273 312.727C294.302 319.757 305.698 319.757 312.727 312.727L287.273 287.273ZM432.727 192.728C439.757 185.699 439.757 174.301 432.727 167.272C425.698 160.243 414.302 160.243 407.273 167.272L432.727 192.728ZM312.727 287.273C305.698 280.243 294.302 280.243 287.273 287.273C280.243 294.302 280.243 305.698 287.273 312.727L312.727 287.273ZM407.273 432.727C414.302 439.757 425.698 439.757 432.727 432.727C439.757 425.698 439.757 414.302 432.727 407.273L407.273 432.727ZM287.273 312.727C294.302 319.757 305.698 319.757 312.727 312.727C319.757 305.698 319.757 294.302 312.727 287.273L287.273 312.727ZM192.728 167.272C185.698 160.243 174.301 160.243 167.272 167.272C160.243 174.301 160.243 185.699 167.272 192.728L192.728 167.272ZM192.728 432.727L312.727 312.727L287.273 287.273L167.272 407.273L192.728 432.727ZM312.727 312.727L432.727 192.728L407.273 167.272L287.273 287.273L312.727 312.727ZM287.273 312.727L407.273 432.727L432.727 407.273L312.727 287.273L287.273 312.727ZM312.727 287.273L192.728 167.272L167.272 192.728L287.273 312.727L312.727 287.273Z" fill="#D82D30"/>
</svg>
