<svg width="600" height="600" viewBox="0 0 600 600" fill="none" xmlns="http://www.w3.org/2000/svg">
<path d="M100 425H87.5C66.7892 425 50 441.79 50 462.5C50 483.21 66.7892 500 87.5 500H512.5C533.21 500 550 483.21 550 462.5C550 441.79 533.21 425 512.5 425H500M100 425H500M100 425V205.005C100 177.002 100 162.991 105.45 152.295C110.243 142.887 117.887 135.243 127.295 130.45C137.99 125 152.002 125 180.005 125H420.005C448.007 125 461.99 125 472.685 130.45C482.092 135.243 489.762 142.887 494.555 152.295C500 162.98 500 176.975 500 204.923V425" stroke="#C3BBBB" stroke-width="20" stroke-linecap="round" stroke-linejoin="round"/>
</svg>
