<svg width="600" height="600" viewBox="0 0 600 600" fill="none" xmlns="http://www.w3.org/2000/svg">
<path d="M67.75 492.5H442.75C446.397 492.5 449.894 493.949 452.473 496.527C455.051 499.106 456.5 502.603 456.5 506.25C456.5 509.897 455.051 513.394 452.473 515.973C449.894 518.551 446.397 520 442.75 520H67.75C64.1033 520 60.606 518.551 58.0273 515.973C55.4487 513.394 54 509.897 54 506.25C54 502.603 55.4487 499.106 58.0273 496.527C60.606 493.949 64.1033 492.5 67.75 492.5ZM67.75 80H442.75C446.397 80 449.894 81.4487 452.473 84.0273C455.051 86.606 456.5 90.1033 456.5 93.75V117.515L461.515 117.5C475.847 117.458 490.043 120.282 503.268 125.807C516.492 131.331 528.479 139.444 538.522 149.669C548.566 159.894 556.463 172.023 561.75 185.345C567.037 198.666 569.607 212.91 569.309 227.239C569.01 241.568 565.848 255.694 560.011 268.783C554.173 281.873 545.777 293.664 535.316 303.461C524.856 313.258 512.542 320.865 499.099 325.833C485.655 330.802 471.353 333.032 457.035 332.393L452.983 332.212L451.971 336.14C443.94 367.291 425.784 394.891 400.355 414.597C374.927 434.303 343.67 444.997 311.5 445H199C160.544 445 123.662 429.723 96.4697 402.53C69.277 375.337 54 338.456 54 300V93.75C54 90.1033 55.4487 86.606 58.0273 84.0273C60.606 81.4487 64.1033 80 67.75 80ZM81.5 300C81.5 331.163 93.8795 361.049 115.915 383.085C137.951 405.12 167.837 417.5 199 417.5H311.5C342.663 417.5 372.549 405.12 394.585 383.085C416.62 361.049 429 331.163 429 300V107.5H81.5V300ZM456.5 305H461.5C482.717 305 503.065 296.571 518.068 281.568C533.071 266.565 541.5 246.217 541.5 225C541.5 203.783 533.071 183.435 518.068 168.432C503.065 153.429 482.717 145 461.5 145H456.5V305Z" fill="#EF8C27" stroke="#EF8C27" stroke-width="10"/>
</svg>
