<svg width="600" height="600" viewBox="0 0 600 600" fill="none" xmlns="http://www.w3.org/2000/svg">
<path d="M488.063 499.906C482.838 499.906 477.629 498.484 472.608 495.656L71.9286 268.828V484.375C71.9286 493.016 64.3286 500 54.9643 500C45.6 500 38 493.016 38 484.375V15.7188C38 7.07813 45.6 0.09375 54.9643 0.09375C64.3286 0.09375 71.9286 7.07813 71.9286 15.7188V216.484L472.761 3.875C477.663 1.29687 482.651 0 487.672 0C502.346 0 513 10.7656 513 25.6094V474.484C513 491.172 500.446 499.906 488.063 499.906ZM90.5384 242.672L479.071 462.625V36.5781L90.5384 242.672Z" fill="#27B43E"/>
</svg>
