<svg width="600" height="600" viewBox="0 0 600 600" fill="none" xmlns="http://www.w3.org/2000/svg">
<path fill-rule="evenodd" clip-rule="evenodd" d="M437.5 162.5H162.5C152.995 162.5 145.313 170.2 145.313 179.688C145.313 189.192 152.995 196.875 162.5 196.875H437.5C447.005 196.875 454.688 189.192 454.688 179.688C454.688 170.2 447.005 162.5 437.5 162.5ZM540.625 506.25C540.625 525.139 521.959 540.831 503.104 540.831H93.3031C74.4484 540.831 59.1516 525.534 59.1516 506.645V96.586C59.1516 77.6969 74.8781 59.375 93.75 59.375H506.25C525.122 59.375 540.625 74.8781 540.625 93.75V506.25ZM506.25 25H93.75C56.0406 25 25 58.8422 25 96.586V506.645C25 544.406 55.5765 575 93.3031 575H503.104C540.831 575 575 543.994 575 506.25V93.75C575 56.0062 543.959 25 506.25 25ZM437.5 368.75H162.5C152.995 368.75 145.313 376.45 145.313 385.938C145.313 395.442 152.995 403.125 162.5 403.125H437.5C447.005 403.125 454.688 395.442 454.688 385.938C454.688 376.45 447.005 368.75 437.5 368.75ZM437.5 265.625H162.5C152.995 265.625 145.313 273.325 145.313 282.813C145.313 292.317 152.995 300 162.5 300H437.5C447.005 300 454.688 292.317 454.688 282.813C454.688 273.325 447.005 265.625 437.5 265.625Z" fill="#27B43E"/>
</svg>
