<svg width="600" height="600" viewBox="0 0 600 600" fill="none" xmlns="http://www.w3.org/2000/svg">
<path d="M300 375C341.423 375 375 341.423 375 300C375 258.577 341.423 225 300 225C258.577 225 225 258.577 225 300C225 341.423 258.577 375 300 375Z" stroke="#C3BBBB" stroke-width="40" stroke-miterlimit="10" stroke-linecap="round" stroke-linejoin="round"/>
<path d="M50 321.998V277.998C50 251.998 71.25 230.499 97.5 230.499C142.75 230.499 161.25 198.499 138.5 159.249C125.5 136.749 133.25 107.499 156 94.4989L199.25 69.7489C219 57.9989 244.5 64.9989 256.25 84.7489L259 89.4989C281.5 128.749 318.5 128.749 341.25 89.4989L344 84.7489C355.75 64.9989 381.25 57.9989 401 69.7489L444.25 94.4989C467 107.499 474.75 136.749 461.75 159.249C439 198.499 457.5 230.499 502.75 230.499C528.75 230.499 550.25 251.748 550.25 277.998V321.998C550.25 347.998 529 369.498 502.75 369.498C457.5 369.498 439 401.498 461.75 440.748C474.75 463.498 467 492.498 444.25 505.498L401 530.248C381.25 541.998 355.75 534.998 344 515.248L341.25 510.498C318.75 471.248 281.75 471.248 259 510.498L256.25 515.248C244.5 534.998 219 541.998 199.25 530.248L156 505.498C133.25 492.498 125.5 463.248 138.5 440.748C161.25 401.498 142.75 369.498 97.5 369.498C71.25 369.498 50 347.998 50 321.998Z" stroke="#C3BBBB" stroke-width="40" stroke-miterlimit="10" stroke-linecap="round" stroke-linejoin="round"/>
</svg>
