<svg width="600" height="600" viewBox="0 0 600 600" fill="none" xmlns="http://www.w3.org/2000/svg">
<path d="M111.938 100.094C117.163 100.094 122.371 101.516 127.392 104.344L528.071 331.172V115.625C528.071 106.984 535.671 100 545.036 100C554.4 100 562 106.984 562 115.625V584.281C562 592.922 554.4 599.906 545.036 599.906C535.671 599.906 528.071 592.922 528.071 584.281V383.516L127.239 596.125C122.337 598.703 117.349 600 112.328 600C97.6536 600 87 589.234 87 574.391V125.516C87 108.828 99.5536 100.094 111.938 100.094ZM509.462 357.328L120.929 137.375V563.422L509.462 357.328Z" fill="#27B43E"/>
</svg>
